<svg width="1200" height="800" viewBox="0 0 1200 800" fill="none" xmlns="http://www.w3.org/2000/svg">
  <path d="M0 120C140 40 240 40 380 120C520 200 620 200 760 120C900 40 1000 40 1200 140" stroke="url(#paint0_linear)" stroke-opacity="0.55" stroke-width="2"/>
  <path d="M0 280C140 200 240 200 380 280C520 360 620 360 760 280C900 200 1000 200 1200 300" stroke="url(#paint1_linear)" stroke-opacity="0.45" stroke-width="2"/>
  <path d="M0 440C140 360 240 360 380 440C520 520 620 520 760 440C900 360 1000 360 1200 460" stroke="url(#paint2_linear)" stroke-opacity="0.35" stroke-width="2"/>
  <path d="M0 600C140 520 240 520 380 600C520 680 620 680 760 600C900 520 1000 520 1200 620" stroke="url(#paint3_linear)" stroke-opacity="0.3" stroke-width="2"/>
  <defs>
    <linearGradient id="paint0_linear" x1="0" y1="0" x2="1200" y2="0" gradientUnits="userSpaceOnUse">
      <stop stop-color="#8A93A2"/>
      <stop offset="0.45" stop-color="#B4BDC9"/>
      <stop offset="1" stop-color="#798390"/>
    </linearGradient>
    <linearGradient id="paint1_linear" x1="0" y1="0" x2="1200" y2="0" gradientUnits="userSpaceOnUse">
      <stop stop-color="#8A93A2"/>
      <stop offset="0.45" stop-color="#B4BDC9"/>
      <stop offset="1" stop-color="#798390"/>
    </linearGradient>
    <linearGradient id="paint2_linear" x1="0" y1="0" x2="1200" y2="0" gradientUnits="userSpaceOnUse">
      <stop stop-color="#8A93A2"/>
      <stop offset="0.45" stop-color="#B4BDC9"/>
      <stop offset="1" stop-color="#798390"/>
    </linearGradient>
    <linearGradient id="paint3_linear" x1="0" y1="0" x2="1200" y2="0" gradientUnits="userSpaceOnUse">
      <stop stop-color="#8A93A2"/>
      <stop offset="0.45" stop-color="#B4BDC9"/>
      <stop offset="1" stop-color="#798390"/>
    </linearGradient>
  </defs>
</svg>
